<svg version="1.1" id="Layer_1" xmlns="http://www.w3.org/2000/svg" xmlns:xlink="http://www.w3.org/1999/xlink" x="0px" y="0px"
	 width="100%" viewBox="0 0 1265 386" enable-background="new 0 0 1265 386" xml:space="preserve">
<path fill="#000000" opacity="1.000000" stroke="none" 
	d="
M899.000000,387.000000 
	C599.333374,387.000000 300.166748,387.000000 1.000080,387.000000 
	C1.000054,258.333374 1.000054,129.666763 1.000027,1.000115 
	C422.666595,1.000077 844.333191,1.000077 1265.999756,1.000038 
	C1265.999878,129.666550 1265.999878,258.333099 1266.000000,386.999817 
	C1143.833374,387.000000 1021.666687,387.000000 899.000000,387.000000 
M447.982239,176.191971 
	C447.573303,171.622406 447.560791,166.974960 446.681427,162.497803 
	C443.995636,148.823547 436.915161,137.675797 425.788483,129.367874 
	C407.725250,115.880669 387.683197,113.301132 367.674591,123.116867 
	C346.818146,133.348526 335.950073,151.024750 335.948364,174.887054 
	C335.946655,199.181412 347.895599,216.512146 368.784607,226.503021 
	C387.831848,235.612991 412.829590,233.545212 429.049347,213.986053 
	C429.049347,219.333298 429.049347,224.021057 429.049347,228.833069 
	C435.415344,228.833069 441.210571,228.833069 447.809570,228.525284 
	C447.820221,211.367935 447.830872,194.210571 447.982239,176.191971 
M788.899902,229.940430 
	C797.164490,230.281433 805.738037,232.204391 813.634888,230.662277 
	C835.957092,226.303116 850.653503,212.732895 857.005066,190.207825 
	C850.576355,190.207825 844.469421,190.207825 838.397095,190.207825 
	C828.287842,210.690048 814.555115,214.690155 797.723633,212.793640 
	C784.556763,211.310043 768.130066,199.267624 766.286133,182.002243 
	C768.137207,182.002243 769.953735,182.002289 771.770264,182.002228 
	C799.422119,182.001312 827.074463,181.917358 854.725281,182.087524 
	C858.954956,182.113556 860.520630,180.783844 860.020813,176.656631 
	C859.429260,171.772079 859.295898,166.815598 858.439880,161.983078 
	C856.906616,153.327118 852.380859,146.134613 847.108398,139.189484 
	C833.614746,121.415123 811.455994,113.816620 790.949280,118.547585 
	C778.116699,121.508102 767.903137,128.518600 759.607788,138.785965 
	C747.835388,153.356934 744.146240,169.980301 748.532776,187.667252 
	C753.736511,208.649429 767.800110,222.355789 788.899902,229.940430 
M150.498489,229.109238 
	C175.419754,235.510147 199.482315,227.764938 214.567459,203.656509 
	C227.273392,183.350479 225.230438,151.736633 203.800369,132.264130 
	C193.168076,122.603088 181.055191,117.707947 166.436935,117.831589 
	C151.711212,117.956139 139.429047,122.713058 128.999832,134.534439 
	C128.999832,121.085541 129.000122,108.953415 128.999756,96.821289 
	C128.999344,82.852852 128.997437,83.025070 115.220665,82.892540 
	C110.899681,82.850975 109.904861,84.358047 109.924332,88.390289 
	C110.065147,117.541931 109.946800,146.694778 110.066437,175.846619 
	C110.081741,179.575989 110.678802,183.377670 111.547859,187.016525 
	C116.550316,207.962540 129.939163,221.390839 150.498489,229.109238 
M705.926086,226.572678 
	C713.827148,222.449234 720.730103,217.258072 726.451050,210.211655 
	C736.566040,197.753159 740.444702,183.390442 738.714844,167.979187 
	C737.010803,152.796844 729.432556,140.361130 717.756042,130.004471 
	C703.120972,117.023521 678.880676,114.320869 662.463257,122.076469 
	C656.204041,125.033318 650.742310,129.678528 644.811646,133.624466 
	C644.811646,117.240425 644.811646,100.207619 644.811646,83.243271 
	C638.646057,83.243271 633.039917,83.243271 627.000122,83.243271 
	C627.000122,85.267273 627.000122,87.063248 627.000122,88.859222 
	C627.000183,117.692223 627.048523,146.525330 626.983704,175.358200 
	C626.938293,195.546204 636.109558,210.798355 652.295349,221.990631 
	C668.888000,233.464203 686.819214,233.532928 705.926086,226.572678 
M969.942139,141.691147 
	C965.937805,137.603378 962.361633,132.952164 957.854004,129.526779 
	C939.694458,115.727180 919.418213,113.268410 899.292847,123.265373 
	C879.295166,133.198914 868.427612,150.325775 867.956238,173.366074 
	C867.514954,194.939911 876.717041,211.171219 894.442993,222.935196 
	C906.908936,231.208328 920.624817,232.687195 934.959839,230.023026 
	C945.327576,228.096146 953.797546,222.730103 961.180664,213.722351 
	C961.180664,219.413513 961.180664,224.112762 961.180664,228.745453 
	C967.680908,228.745453 973.616699,228.745453 979.730896,228.745453 
	C979.832336,227.888184 979.981201,227.255325 979.971191,226.624969 
	C979.657715,206.866135 979.296387,187.108032 979.015991,167.348755 
	C978.883179,157.991013 975.282532,149.926010 969.942139,141.691147 
M308.006073,192.500000 
	C308.006073,204.589645 308.006073,216.679276 308.006073,228.592621 
	C314.765808,228.592621 320.822601,228.592621 326.999969,228.592621 
	C326.999969,208.857803 326.939728,189.529312 327.018250,170.201370 
	C327.086395,153.423462 321.597717,139.420395 308.212128,128.550217 
	C296.682190,119.186974 283.740936,117.692375 269.800354,119.639107 
	C261.199341,120.840210 254.866791,125.874817 248.999802,132.726990 
	C248.999802,119.894791 248.999954,107.899017 248.999756,95.903236 
	C248.999542,82.943756 248.995361,83.146996 235.794449,82.884529 
	C231.115616,82.791496 229.885254,84.209854 229.901962,88.821274 
	C230.065689,133.981293 229.998474,179.142120 230.010498,224.302719 
	C230.010880,225.748795 230.156418,227.194839 230.235367,228.660706 
	C236.628601,228.660706 242.683441,228.660706 248.999756,228.660706 
	C248.999756,206.679230 248.979202,185.035385 249.035141,163.391739 
	C249.040131,161.466766 249.464401,159.528214 249.826508,157.621124 
	C252.858536,141.652359 271.552856,133.141876 285.554077,136.972855 
	C297.219452,140.164719 308.829498,151.452576 308.086273,165.507980 
	C307.629333,174.149231 308.004517,182.834503 308.006073,192.500000 
M533.475220,133.041733 
	C536.475586,128.993164 539.476013,124.944595 543.139709,120.000984 
	C535.960510,120.000984 530.452454,119.761322 524.986206,120.134613 
	C523.142883,120.260498 520.827454,121.506744 519.716675,122.984314 
	C513.844299,130.796158 508.356110,138.895157 502.604614,146.799957 
	C494.396667,158.080795 486.076050,169.279648 476.995544,181.610794 
	C476.995544,148.011032 476.995544,115.685806 476.995544,83.328323 
	C470.373230,83.328323 464.317871,83.328323 458.364441,83.328323 
	C458.364441,132.036697 458.364441,180.409729 458.364441,228.762421 
	C465.000916,228.762421 471.270203,228.762421 478.003571,228.762421 
	C478.003571,223.418213 478.290863,218.276077 477.914124,213.183060 
	C477.603760,208.987228 478.659180,205.552811 481.250061,202.333847 
	C484.867554,197.839493 488.310425,193.204559 492.112488,188.259750 
	C493.340240,190.099899 493.979706,191.236115 494.785400,192.238770 
	C504.224792,203.985184 513.662598,215.733292 523.201416,227.398666 
	C523.902771,228.256378 525.370789,228.900772 526.499146,228.927048 
	C532.763306,229.072998 539.032715,228.997025 546.564575,228.997025 
	C531.576355,210.377945 517.273560,192.610367 503.061157,174.955093 
	C508.190247,167.962265 513.233337,161.138748 518.219604,154.274002 
	C523.197632,147.420593 528.118896,140.525864 533.475220,133.041733 
M1040.057861,218.297516 
	C1054.762695,236.674301 1081.219116,236.124954 1096.362183,217.451202 
	C1107.419067,203.816330 1104.276123,179.035461 1089.196411,170.933945 
	C1081.556519,166.829453 1073.114624,164.211838 1065.018433,160.964142 
	C1059.860229,158.895004 1055.825439,155.358826 1055.248413,149.857285 
	C1054.794800,145.533463 1056.192993,140.936371 1060.396240,138.304321 
	C1065.535156,135.086349 1070.880127,134.931168 1076.196533,138.045853 
	C1081.063477,140.897202 1081.030884,145.799927 1081.129028,150.733978 
	C1087.476807,150.733978 1093.547485,150.733978 1099.586670,150.733978 
	C1101.039917,138.044296 1095.687744,127.787285 1084.328491,121.797104 
	C1071.795166,115.187798 1059.973145,116.594414 1048.442993,124.780190 
	C1039.538208,131.102112 1035.735474,139.954102 1036.226929,150.093369 
	C1036.813354,162.190735 1043.060425,171.313034 1054.732422,176.013947 
	C1061.810303,178.864594 1069.085815,181.293945 1075.955078,184.576706 
	C1085.112427,188.952927 1086.616821,201.398865 1079.761841,208.712692 
	C1072.781128,216.160950 1060.257080,215.529587 1054.774414,206.183945 
	C1052.742310,202.720078 1052.098755,198.441589 1050.701660,194.166229 
	C1045.095825,194.166229 1038.810303,194.166229 1032.859497,194.166229 
	C1032.349609,202.918625 1034.578247,210.742432 1040.057861,218.297516 
M1016.550964,138.010178 
	C1020.879639,138.008453 1025.221924,138.195099 1029.528198,137.883667 
	C1030.730835,137.796692 1032.754883,136.299789 1032.817139,135.346313 
	C1033.147095,130.287842 1032.972168,125.196442 1032.972168,119.809769 
	C1024.272827,119.809769 1016.338074,119.809769 1007.898560,119.809769 
	C1007.898560,107.756554 1007.898560,96.035515 1007.898560,84.357597 
	C1001.658142,84.357597 995.938232,84.357597 990.234924,84.357597 
	C990.132446,85.196266 990.021179,85.682297 990.020996,86.168358 
	C990.008850,124.293724 989.904663,162.419556 990.084106,200.544052 
	C990.121155,208.414413 992.761597,215.907959 998.821838,221.129440 
	C1008.467468,229.440033 1020.157227,231.650772 1032.998657,230.835861 
	C1032.998657,226.818176 1032.823730,223.178635 1033.048950,219.564011 
	C1033.266479,216.074371 1031.911255,215.099167 1028.463135,214.892868 
	C1020.027527,214.388153 1012.626953,211.618515 1009.954651,202.527054 
	C1008.820435,198.668274 1008.137268,194.540512 1008.085144,190.524139 
	C1007.877747,174.544144 1007.992737,158.559845 1008.012146,142.577179 
	C1008.013855,141.142700 1008.186340,139.708435 1008.296692,138.010178 
	C1010.957886,138.010178 1013.265747,138.010178 1016.550964,138.010178 
M549.367737,208.854919 
	C553.580017,226.449463 576.729431,232.925720 589.635010,230.359024 
	C589.635010,225.272583 589.635010,220.205292 589.635010,215.150711 
	C572.788818,215.452530 565.360474,205.940750 565.882629,190.516602 
	C566.412231,174.872803 565.999634,159.197098 565.999695,143.535370 
	C565.999695,141.777161 565.999695,140.018951 565.999695,137.748978 
	C574.408142,137.748978 582.141113,137.748978 589.733765,137.748978 
	C589.733765,131.618881 589.733765,126.013504 589.733765,119.890152 
	C581.750366,119.890152 574.020264,119.890152 565.784790,119.890152 
	C565.784790,107.642815 565.784790,95.914665 565.784790,84.247009 
	C559.652649,84.247009 554.048828,84.247009 548.000000,84.247009 
	C548.000000,86.276817 548.000000,88.066330 548.000000,89.855850 
	C548.000061,123.845139 547.953918,157.834549 548.047546,191.823578 
	C548.062439,197.240097 548.704773,202.654892 549.367737,208.854919 
M598.000183,134.505890 
	C598.000183,165.917175 598.000183,197.328461 598.000183,228.597046 
	C604.747803,228.597046 610.803284,228.597046 617.002197,228.597046 
	C617.002197,219.203522 617.002197,210.211395 617.002197,201.219269 
	C617.002136,175.896454 617.015381,150.573624 616.978577,125.250862 
	C616.975403,123.080917 617.825378,120.131714 614.135010,120.044388 
	C608.869202,119.919785 603.598206,120.012695 598.000183,120.012695 
	C598.000183,124.904419 598.000183,129.207062 598.000183,134.505890 
M606.492493,82.994400 
	C603.731140,82.994400 600.969849,82.994400 598.397705,82.994400 
	C598.397705,93.076584 598.397705,102.469193 598.397705,111.725906 
	C604.736389,111.725906 610.674744,111.725906 617.001953,111.725906 
	C617.001953,105.163750 617.042053,98.867035 616.993103,92.571014 
	C616.908020,81.618118 618.373474,83.111229 606.492493,82.994400 
z"/>
<path fill="#F9690E" opacity="1.000000" stroke="none" 
	d="
M788.512695,229.778717 
	C767.800110,222.355789 753.736511,208.649429 748.532776,187.667252 
	C744.146240,169.980301 747.835388,153.356934 759.607788,138.785965 
	C767.903137,128.518600 778.116699,121.508102 790.949280,118.547585 
	C811.455994,113.816620 833.614746,121.415123 847.108398,139.189484 
	C852.380859,146.134613 856.906616,153.327118 858.439880,161.983078 
	C859.295898,166.815598 859.429260,171.772079 860.020813,176.656631 
	C860.520630,180.783844 858.954956,182.113556 854.725281,182.087524 
	C827.074463,181.917358 799.422119,182.001312 771.770264,182.002228 
	C769.953735,182.002289 768.137207,182.002243 766.286133,182.002243 
	C768.130066,199.267624 784.556763,211.310043 797.723633,212.793640 
	C814.555115,214.690155 828.287842,210.690048 838.397095,190.207825 
	C844.469421,190.207825 850.576355,190.207825 857.005066,190.207825 
	C850.653503,212.732895 835.957092,226.303116 813.634888,230.662277 
	C805.738037,232.204391 797.164490,230.281433 788.512695,229.778717 
M787.500244,163.999573 
	C805.240356,163.999573 822.980469,163.999573 840.885742,163.999573 
	C834.794800,143.686874 816.149048,133.683731 797.785522,136.103287 
	C781.576538,138.238937 767.938477,152.494415 767.012085,163.999573 
	C773.513611,163.999573 780.006958,163.999573 787.500244,163.999573 
z"/>
<path fill="#F9690E" opacity="1.000000" stroke="none" 
	d="
M150.086761,229.059464 
	C129.939163,221.390839 116.550316,207.962540 111.547859,187.016525 
	C110.678802,183.377670 110.081741,179.575989 110.066437,175.846619 
	C109.946800,146.694778 110.065147,117.541931 109.924332,88.390289 
	C109.904861,84.358047 110.899681,82.850975 115.220665,82.892540 
	C128.997437,83.025070 128.999344,82.852852 128.999756,96.821289 
	C129.000122,108.953415 128.999832,121.085541 128.999832,134.534439 
	C139.429047,122.713058 151.711212,117.956139 166.436935,117.831589 
	C181.055191,117.707947 193.168076,122.603088 203.800369,132.264130 
	C225.230438,151.736633 227.273392,183.350479 214.567459,203.656509 
	C199.482315,227.764938 175.419754,235.510147 150.086761,229.059464 
M142.664963,144.062317 
	C139.875854,147.474701 136.595444,150.597305 134.382446,154.349457 
	C124.655861,170.840897 128.461975,190.935104 141.811874,203.649368 
	C154.645233,215.871719 177.354034,216.239059 190.478745,204.047852 
	C205.451248,190.140305 209.044357,168.021103 195.747818,150.495209 
	C182.963104,133.643936 158.356552,130.744247 142.664963,144.062317 
z"/>
<path fill="#F9690E" opacity="1.000000" stroke="none" 
	d="
M705.583618,226.760864 
	C686.819214,233.532928 668.888000,233.464203 652.295349,221.990631 
	C636.109558,210.798355 626.938293,195.546204 626.983704,175.358200 
	C627.048523,146.525330 627.000183,117.692223 627.000122,88.859222 
	C627.000122,87.063248 627.000122,85.267273 627.000122,83.243271 
	C633.039917,83.243271 638.646057,83.243271 644.811646,83.243271 
	C644.811646,100.207619 644.811646,117.240425 644.811646,133.624466 
	C650.742310,129.678528 656.204041,125.033318 662.463257,122.076469 
	C678.880676,114.320869 703.120972,117.023521 717.756042,130.004471 
	C729.432556,140.361130 737.010803,152.796844 738.714844,167.979187 
	C740.444702,183.390442 736.566040,197.753159 726.451050,210.211655 
	C720.730103,217.258072 713.827148,222.449234 705.583618,226.760864 
M659.065002,204.549973 
	C659.779907,204.939377 660.603394,205.207672 661.193359,205.736450 
	C669.523987,213.202972 679.970215,214.970535 689.892456,212.643509 
	C711.548157,207.564697 723.465027,188.746124 719.635376,166.592484 
	C716.538818,148.679230 699.873535,135.181412 681.053284,135.810532 
	C659.205383,136.540863 645.083496,156.109161 645.200195,175.043289 
	C645.269592,186.304550 649.879150,196.313568 659.065002,204.549973 
z"/>
<path fill="#F9690E" opacity="1.000000" stroke="none" 
	d="
M970.009644,142.051559 
	C975.282532,149.926010 978.883179,157.991013 979.015991,167.348755 
	C979.296387,187.108032 979.657715,206.866135 979.971191,226.624969 
	C979.981201,227.255325 979.832336,227.888184 979.730896,228.745453 
	C973.616699,228.745453 967.680908,228.745453 961.180664,228.745453 
	C961.180664,224.112762 961.180664,219.413513 961.180664,213.722351 
	C953.797546,222.730103 945.327576,228.096146 934.959839,230.023026 
	C920.624817,232.687195 906.908936,231.208328 894.442993,222.935196 
	C876.717041,211.171219 867.514954,194.939911 867.956238,173.366074 
	C868.427612,150.325775 879.295166,133.198914 899.292847,123.265373 
	C919.418213,113.268410 939.694458,115.727180 957.854004,129.526779 
	C962.361633,132.952164 965.937805,137.603378 970.009644,142.051559 
M895.971252,200.459518 
	C896.793396,201.284134 897.594238,202.131271 898.440796,202.929962 
	C909.015198,212.906555 921.456665,215.810806 935.091553,211.299469 
	C947.705872,207.125809 955.433472,197.932831 959.456848,185.203384 
	C966.700073,162.287109 949.025085,135.271866 923.580078,135.698715 
	C904.888550,136.012268 886.367126,152.443115 886.024048,173.308044 
	C885.859497,183.313721 889.373901,192.111374 895.971252,200.459518 
z"/>
<path fill="#F9690E" opacity="1.000000" stroke="none" 
	d="
M447.005768,228.833069 
	C441.210571,228.833069 435.415344,228.833069 429.049347,228.833069 
	C429.049347,224.021057 429.049347,219.333298 429.049347,213.986053 
	C412.829590,233.545212 387.831848,235.612991 368.784607,226.503021 
	C347.895599,216.512146 335.946655,199.181412 335.948364,174.887054 
	C335.950073,151.024750 346.818146,133.348526 367.674591,123.116867 
	C387.683197,113.301132 407.725250,115.880669 425.788483,129.367874 
	C436.915161,137.675797 443.995636,148.823547 446.681427,162.497803 
	C447.560791,166.974960 447.573303,171.622406 447.737061,176.989532 
	C447.328003,179.587463 447.026154,181.387512 447.021881,183.188232 
	C446.985718,198.403107 447.003937,213.618103 447.005768,228.833069 
M355.988129,186.280197 
	C357.306000,189.076385 358.417450,191.993729 359.975739,194.648834 
	C369.058563,210.124802 384.751312,215.455490 400.631989,212.195602 
	C417.579346,208.716751 432.938843,186.218842 428.183258,166.349228 
	C423.237274,145.684067 406.292816,132.392990 385.109894,136.290970 
	C362.985626,140.362137 348.937927,162.822525 355.988129,186.280197 
z"/>
<path fill="#F9690E" opacity="1.000000" stroke="none" 
	d="
M308.006073,192.000000 
	C308.004517,182.834503 307.629333,174.149231 308.086273,165.507980 
	C308.829498,151.452576 297.219452,140.164719 285.554077,136.972855 
	C271.552856,133.141876 252.858536,141.652359 249.826508,157.621124 
	C249.464401,159.528214 249.040131,161.466766 249.035141,163.391739 
	C248.979202,185.035385 248.999756,206.679230 248.999756,228.660706 
	C242.683441,228.660706 236.628601,228.660706 230.235367,228.660706 
	C230.156418,227.194839 230.010880,225.748795 230.010498,224.302719 
	C229.998474,179.142120 230.065689,133.981293 229.901962,88.821274 
	C229.885254,84.209854 231.115616,82.791496 235.794449,82.884529 
	C248.995361,83.146996 248.999542,82.943756 248.999756,95.903236 
	C248.999954,107.899017 248.999802,119.894791 248.999802,132.726990 
	C254.866791,125.874817 261.199341,120.840210 269.800354,119.639107 
	C283.740936,117.692375 296.682190,119.186974 308.212128,128.550217 
	C321.597717,139.420395 327.086395,153.423462 327.018250,170.201370 
	C326.939728,189.529312 326.999969,208.857803 326.999969,228.592621 
	C320.822601,228.592621 314.765808,228.592621 308.006073,228.592621 
	C308.006073,216.679276 308.006073,204.589645 308.006073,192.000000 
z"/>
<path fill="#F9690E" opacity="1.000000" stroke="none" 
	d="
M533.270142,133.345490 
	C528.118896,140.525864 523.197632,147.420593 518.219604,154.274002 
	C513.233337,161.138748 508.190247,167.962265 503.061157,174.955093 
	C517.273560,192.610367 531.576355,210.377945 546.564575,228.997025 
	C539.032715,228.997025 532.763306,229.072998 526.499146,228.927048 
	C525.370789,228.900772 523.902771,228.256378 523.201416,227.398666 
	C513.662598,215.733292 504.224792,203.985184 494.785400,192.238770 
	C493.979706,191.236115 493.340240,190.099899 492.112488,188.259750 
	C488.310425,193.204559 484.867554,197.839493 481.250061,202.333847 
	C478.659180,205.552811 477.603760,208.987228 477.914124,213.183060 
	C478.290863,218.276077 478.003571,223.418213 478.003571,228.762421 
	C471.270203,228.762421 465.000916,228.762421 458.364441,228.762421 
	C458.364441,180.409729 458.364441,132.036697 458.364441,83.328323 
	C464.317871,83.328323 470.373230,83.328323 476.995544,83.328323 
	C476.995544,115.685806 476.995544,148.011032 476.995544,181.610794 
	C486.076050,169.279648 494.396667,158.080795 502.604614,146.799957 
	C508.356110,138.895157 513.844299,130.796158 519.716675,122.984314 
	C520.827454,121.506744 523.142883,120.260498 524.986206,120.134613 
	C530.452454,119.761322 535.960510,120.000984 543.139709,120.000984 
	C539.476013,124.944595 536.475586,128.993164 533.270142,133.345490 
z"/>
<path fill="#F9690E" opacity="1.000000" stroke="none" 
	d="
M1039.989624,217.936371 
	C1034.578247,210.742432 1032.349609,202.918625 1032.859497,194.166229 
	C1038.810303,194.166229 1045.095825,194.166229 1050.701660,194.166229 
	C1052.098755,198.441589 1052.742310,202.720078 1054.774414,206.183945 
	C1060.257080,215.529587 1072.781128,216.160950 1079.761841,208.712692 
	C1086.616821,201.398865 1085.112427,188.952927 1075.955078,184.576706 
	C1069.085815,181.293945 1061.810303,178.864594 1054.732422,176.013947 
	C1043.060425,171.313034 1036.813354,162.190735 1036.226929,150.093369 
	C1035.735474,139.954102 1039.538208,131.102112 1048.442993,124.780190 
	C1059.973145,116.594414 1071.795166,115.187798 1084.328491,121.797104 
	C1095.687744,127.787285 1101.039917,138.044296 1099.586670,150.733978 
	C1093.547485,150.733978 1087.476807,150.733978 1081.129028,150.733978 
	C1081.030884,145.799927 1081.063477,140.897202 1076.196533,138.045853 
	C1070.880127,134.931168 1065.535156,135.086349 1060.396240,138.304321 
	C1056.192993,140.936371 1054.794800,145.533463 1055.248413,149.857285 
	C1055.825439,155.358826 1059.860229,158.895004 1065.018433,160.964142 
	C1073.114624,164.211838 1081.556519,166.829453 1089.196411,170.933945 
	C1104.276123,179.035461 1107.419067,203.816330 1096.362183,217.451202 
	C1081.219116,236.124954 1054.762695,236.674301 1039.989624,217.936371 
z"/>
<path fill="#F9690E" opacity="1.000000" stroke="none" 
	d="
M1016.062256,138.010178 
	C1013.265747,138.010178 1010.957886,138.010178 1008.296692,138.010178 
	C1008.186340,139.708435 1008.013855,141.142700 1008.012146,142.577179 
	C1007.992737,158.559845 1007.877747,174.544144 1008.085144,190.524139 
	C1008.137268,194.540512 1008.820435,198.668274 1009.954651,202.527054 
	C1012.626953,211.618515 1020.027527,214.388153 1028.463135,214.892868 
	C1031.911255,215.099167 1033.266479,216.074371 1033.048950,219.564011 
	C1032.823730,223.178635 1032.998657,226.818176 1032.998657,230.835861 
	C1020.157227,231.650772 1008.467468,229.440033 998.821838,221.129440 
	C992.761597,215.907959 990.121155,208.414413 990.084106,200.544052 
	C989.904663,162.419556 990.008850,124.293724 990.020996,86.168358 
	C990.021179,85.682297 990.132446,85.196266 990.234924,84.357597 
	C995.938232,84.357597 1001.658142,84.357597 1007.898560,84.357597 
	C1007.898560,96.035515 1007.898560,107.756554 1007.898560,119.809769 
	C1016.338074,119.809769 1024.272827,119.809769 1032.972168,119.809769 
	C1032.972168,125.196442 1033.147095,130.287842 1032.817139,135.346313 
	C1032.754883,136.299789 1030.730835,137.796692 1029.528198,137.883667 
	C1025.221924,138.195099 1020.879639,138.008453 1016.062256,138.010178 
z"/>
<path fill="#F9690E" opacity="1.000000" stroke="none" 
	d="
M549.212402,208.462708 
	C548.704773,202.654892 548.062439,197.240097 548.047546,191.823578 
	C547.953918,157.834549 548.000061,123.845139 548.000000,89.855850 
	C548.000000,88.066330 548.000000,86.276817 548.000000,84.247009 
	C554.048828,84.247009 559.652649,84.247009 565.784790,84.247009 
	C565.784790,95.914665 565.784790,107.642815 565.784790,119.890152 
	C574.020264,119.890152 581.750366,119.890152 589.733765,119.890152 
	C589.733765,126.013504 589.733765,131.618881 589.733765,137.748978 
	C582.141113,137.748978 574.408142,137.748978 565.999695,137.748978 
	C565.999695,140.018951 565.999695,141.777161 565.999695,143.535370 
	C565.999634,159.197098 566.412231,174.872803 565.882629,190.516602 
	C565.360474,205.940750 572.788818,215.452530 589.635010,215.150711 
	C589.635010,220.205292 589.635010,225.272583 589.635010,230.359024 
	C576.729431,232.925720 553.580017,226.449463 549.212402,208.462708 
z"/>
<path fill="#F9690E" opacity="1.000000" stroke="none" 
	d="
M598.000183,134.007797 
	C598.000183,129.207062 598.000183,124.904419 598.000183,120.012695 
	C603.598206,120.012695 608.869202,119.919785 614.135010,120.044388 
	C617.825378,120.131714 616.975403,123.080917 616.978577,125.250862 
	C617.015381,150.573624 617.002136,175.896454 617.002197,201.219269 
	C617.002197,210.211395 617.002197,219.203522 617.002197,228.597046 
	C610.803284,228.597046 604.747803,228.597046 598.000183,228.597046 
	C598.000183,197.328461 598.000183,165.917175 598.000183,134.007797 
z"/>
<path fill="#F9690E" opacity="1.000000" stroke="none" 
	d="
M606.977295,82.994400 
	C618.373474,83.111229 616.908020,81.618118 616.993103,92.571014 
	C617.042053,98.867035 617.001953,105.163750 617.001953,111.725906 
	C610.674744,111.725906 604.736389,111.725906 598.397705,111.725906 
	C598.397705,102.469193 598.397705,93.076584 598.397705,82.994400 
	C600.969849,82.994400 603.731140,82.994400 606.977295,82.994400 
z"/>
<path fill="#FE711C" opacity="1.000000" stroke="none" 
	d="
M447.407654,228.679169 
	C447.003937,213.618103 446.985718,198.403107 447.021881,183.188232 
	C447.026154,181.387512 447.328003,179.587463 447.666687,177.420166 
	C447.830872,194.210571 447.820221,211.367935 447.407654,228.679169 
z"/>
<path fill="#000000" opacity="1.000000" stroke="none" 
	d="
M787.000305,163.999573 
	C780.006958,163.999573 773.513611,163.999573 767.012085,163.999573 
	C767.938477,152.494415 781.576538,138.238937 797.785522,136.103287 
	C816.149048,133.683731 834.794800,143.686874 840.885742,163.999573 
	C822.980469,163.999573 805.240356,163.999573 787.000305,163.999573 
z"/>
<path fill="#000000" opacity="1.000000" stroke="none" 
	d="
M143.024796,143.994080 
	C158.356552,130.744247 182.963104,133.643936 195.747818,150.495209 
	C209.044357,168.021103 205.451248,190.140305 190.478745,204.047852 
	C177.354034,216.239059 154.645233,215.871719 141.811874,203.649368 
	C128.461975,190.935104 124.655861,170.840897 134.382446,154.349457 
	C136.595444,150.597305 139.875854,147.474701 143.024796,143.994080 
z"/>
<path fill="#000000" opacity="1.000000" stroke="none" 
	d="
M658.808716,204.291840 
	C649.879150,196.313568 645.269592,186.304550 645.200195,175.043289 
	C645.083496,156.109161 659.205383,136.540863 681.053284,135.810532 
	C699.873535,135.181412 716.538818,148.679230 719.635376,166.592484 
	C723.465027,188.746124 711.548157,207.564697 689.892456,212.643509 
	C679.970215,214.970535 669.523987,213.202972 661.193359,205.736450 
	C660.603394,205.207672 659.779907,204.939377 658.808716,204.291840 
z"/>
<path fill="#000000" opacity="1.000000" stroke="none" 
	d="
M895.708191,200.209503 
	C889.373901,192.111374 885.859497,183.313721 886.024048,173.308044 
	C886.367126,152.443115 904.888550,136.012268 923.580078,135.698715 
	C949.025085,135.271866 966.700073,162.287109 959.456848,185.203384 
	C955.433472,197.932831 947.705872,207.125809 935.091553,211.299469 
	C921.456665,215.810806 909.015198,212.906555 898.440796,202.929962 
	C897.594238,202.131271 896.793396,201.284134 895.708191,200.209503 
z"/>
<path fill="#000000" opacity="1.000000" stroke="none" 
	d="
M355.930420,185.869171 
	C348.937927,162.822525 362.985626,140.362137 385.109894,136.290970 
	C406.292816,132.392990 423.237274,145.684067 428.183258,166.349228 
	C432.938843,186.218842 417.579346,208.716751 400.631989,212.195602 
	C384.751312,215.455490 369.058563,210.124802 359.975739,194.648834 
	C358.417450,191.993729 357.306000,189.076385 355.930420,185.869171 
z"/>
</svg>